<svg width="301" height="100" viewBox="0 0 301 100" fill="none" xmlns="http://www.w3.org/2000/svg">
<path fill-rule="evenodd" clip-rule="evenodd" d="M50 100C77.6142 100 100 77.6142 100 50C100 22.3858 77.6142 0 50 0C22.3858 0 0 22.3858 0 50C0 77.6142 22.3858 100 50 100ZM50 96C75.4051 96 96 75.4051 96 50C96 24.5949 75.4051 4 50 4C24.5949 4 4 24.5949 4 50C4 75.4051 24.5949 96 50 96Z" fill="#444444"/>
<rect x="22.5" y="41" width="32" height="6" rx="3" fill="#444444"/>
<rect x="51.9076" y="16" width="36.5035" height="6" rx="3" transform="rotate(45 51.9076 16)" fill="#444444"/>
<rect x="48.5469" y="46.0269" width="29.2388" height="6" rx="3" transform="rotate(-90 48.5469 46.0269)" fill="#444444"/>
<rect x="77.5" y="58.5" width="32" height="6" rx="3" transform="rotate(-180 77.5 58.5)" fill="#444444"/>
<rect x="47.8587" y="83.2172" width="36.5035" height="6" rx="3" transform="rotate(-135 47.8587 83.2172)" fill="#444444"/>
<rect x="51.2195" y="53.1903" width="29.2388" height="6" rx="3" transform="rotate(90 51.2195 53.1903)" fill="#444444"/>
<path d="M123.8 67C121.2 67 119.117 66.3667 117.55 65.1C115.983 63.8333 115.2 61.5833 115.2 58.35V47.55H110.95V42.2H115.2L115.95 35.55H121.6V42.2H128.3V47.55H121.6V58.4C121.6 59.6 121.85 60.4333 122.35 60.9C122.883 61.3333 123.783 61.55 125.05 61.55H128.15V67H123.8Z" fill="#444444"/>
<path d="M133.795 67V42.2H139.495L140.095 46.85C140.995 45.25 142.212 43.9833 143.745 43.05C145.312 42.0833 147.145 41.6 149.245 41.6V48.35H147.445C146.045 48.35 144.795 48.5667 143.695 49C142.595 49.4333 141.728 50.1833 141.095 51.25C140.495 52.3167 140.195 53.8 140.195 55.7V67H133.795Z" fill="#444444"/>
<path d="M162.169 67.6C160.036 67.6 158.286 67.2667 156.919 66.6C155.552 65.9 154.536 64.9833 153.869 63.85C153.202 62.7167 152.869 61.4667 152.869 60.1C152.869 57.8 153.769 55.9333 155.569 54.5C157.369 53.0667 160.069 52.35 163.669 52.35H169.969V51.75C169.969 50.05 169.486 48.8 168.519 48C167.552 47.2 166.352 46.8 164.919 46.8C163.619 46.8 162.486 47.1167 161.519 47.75C160.552 48.35 159.952 49.25 159.719 50.45H153.469C153.636 48.65 154.236 47.0833 155.269 45.75C156.336 44.4167 157.702 43.4 159.369 42.7C161.036 41.9667 162.902 41.6 164.969 41.6C168.502 41.6 171.286 42.4833 173.319 44.25C175.352 46.0167 176.369 48.5167 176.369 51.75V67H170.919L170.319 63C169.586 64.3333 168.552 65.4333 167.219 66.3C165.919 67.1667 164.236 67.6 162.169 67.6ZM163.619 62.6C165.452 62.6 166.869 62 167.869 60.8C168.902 59.6 169.552 58.1167 169.819 56.35H164.369C162.669 56.35 161.452 56.6667 160.719 57.3C159.986 57.9 159.619 58.65 159.619 59.55C159.619 60.5167 159.986 61.2667 160.719 61.8C161.452 62.3333 162.419 62.6 163.619 62.6Z" fill="#444444"/>
<path d="M182.477 67V42.2H188.127L188.627 46.4C189.393 44.9333 190.493 43.7667 191.927 42.9C193.393 42.0333 195.11 41.6 197.077 41.6C200.143 41.6 202.527 42.5667 204.227 44.5C205.927 46.4333 206.777 49.2667 206.777 53V67H200.377V53.6C200.377 51.4667 199.943 49.8333 199.077 48.7C198.21 47.5667 196.86 47 195.027 47C193.227 47 191.743 47.6333 190.577 48.9C189.443 50.1667 188.877 51.9333 188.877 54.2V67H182.477Z" fill="#444444"/>
<path d="M223.146 67.6C220.946 67.6 219.013 67.25 217.346 66.55C215.68 65.8167 214.346 64.8167 213.346 63.55C212.346 62.2833 211.746 60.8167 211.546 59.15H217.996C218.196 60.1167 218.73 60.95 219.596 61.65C220.496 62.3167 221.646 62.65 223.046 62.65C224.446 62.65 225.463 62.3667 226.096 61.8C226.763 61.2333 227.096 60.5833 227.096 59.85C227.096 58.7833 226.63 58.0667 225.696 57.7C224.763 57.3 223.463 56.9167 221.796 56.55C220.73 56.3167 219.646 56.0333 218.546 55.7C217.446 55.3667 216.43 54.95 215.496 54.45C214.596 53.9167 213.863 53.25 213.296 52.45C212.73 51.6167 212.446 50.6 212.446 49.4C212.446 47.2 213.313 45.35 215.046 43.85C216.813 42.35 219.28 41.6 222.446 41.6C225.38 41.6 227.713 42.2833 229.446 43.65C231.213 45.0167 232.263 46.9 232.596 49.3H226.547C226.18 47.4667 224.796 46.55 222.396 46.55C221.196 46.55 220.263 46.7833 219.596 47.25C218.963 47.7167 218.646 48.3 218.646 49C218.646 49.7333 219.13 50.3167 220.096 50.75C221.063 51.1833 222.346 51.5833 223.946 51.95C225.68 52.35 227.263 52.8 228.696 53.3C230.163 53.7667 231.33 54.4833 232.196 55.45C233.063 56.3833 233.496 57.7333 233.496 59.5C233.53 61.0333 233.13 62.4167 232.296 63.65C231.463 64.8833 230.263 65.85 228.696 66.55C227.13 67.25 225.28 67.6 223.146 67.6Z" fill="#444444"/>
<path d="M240.316 67V47.55H236.916V42.2H240.316V39.3C240.316 36.3 241.066 34.1667 242.566 32.9C244.099 31.6333 246.166 31 248.766 31H251.516V36.45H249.766C248.666 36.45 247.883 36.6667 247.416 37.1C246.949 37.5333 246.716 38.2667 246.716 39.3V42.2H262.716V67H256.316V47.55H246.716V67H240.316ZM259.566 38.65C258.399 38.65 257.433 38.3 256.666 37.6C255.933 36.9 255.566 36.0167 255.566 34.95C255.566 33.8833 255.933 33.0167 256.666 32.35C257.433 31.65 258.399 31.3 259.566 31.3C260.733 31.3 261.683 31.65 262.416 32.35C263.183 33.0167 263.566 33.8833 263.566 34.95C263.566 36.0167 263.183 36.9 262.416 37.6C261.683 38.3 260.733 38.65 259.566 38.65Z" fill="#444444"/>
<path d="M267.888 67V61.85L280.538 47.5H268.038V42.2H287.838V47.35L274.988 61.7H288.088V67H267.888Z" fill="#444444"/>
<path d="M296.864 38.35C295.697 38.35 294.731 38 293.964 37.3C293.231 36.6 292.864 35.7167 292.864 34.65C292.864 33.5833 293.231 32.7167 293.964 32.05C294.731 31.35 295.697 31 296.864 31C298.031 31 298.981 31.35 299.714 32.05C300.481 32.7167 300.864 33.5833 300.864 34.65C300.864 35.7167 300.481 36.6 299.714 37.3C298.981 38 298.031 38.35 296.864 38.35ZM293.664 67V42.2H300.064V67H293.664Z" fill="#444444"/>
<ellipse cx="260" cy="35" rx="4.5" ry="4" fill="#DCA413"/>
</svg>
